# xmcd
#
# Track frame offsets: 
#        150
#        16373
#        33909
#        52090
#        66076
#        83381
#        102673
#        116956
#        136918
#        152218
#        172303
#        186867
#        213328
#
# Disc length: 4180 seconds
#
# Revision: 0
# Processed by: cddbd v1.5.2PL0 Copyright (c) Steve Scherf et al.
# Submitted via: ExactAudioCopy v0.99pb3
#
DISCID=b910520d
DTITLE=Олександр Пономарьов - Ніченькою
DYEAR=2007
DGENRE=Pop
TTITLE0=А ти просто кохай
TTITLE1=Ти дочекайся мене
TTITLE2=Ніченькою темною
TTITLE3=Пілігрім
TTITLE4=Я не такий
TTITLE5=Весільна пісня
TTITLE6=Я твій Дід Мороз!
TTITLE7=Марія
TTITLE8=Volare
TTITLE9=З ранку до ночі(new version)
TTITLE10=А ти просто кохай(remix)
TTITLE11=Саундтрек до фільму"Мій Принц"
TTITLE12=Playlist
EXTD=
EXTT0=
EXTT1=
EXTT2=
EXTT3=
EXTT4=
EXTT5=
EXTT6=
EXTT7=
EXTT8=
EXTT9=
EXTT10=
EXTT11=
EXTT12=
PLAYORDER=
